<svg id="Layer_1" data-name="Layer 1" xmlns="http://www.w3.org/2000/svg" viewBox="0 0 400 400"><defs><style>.cls-1{stroke:#fff;stroke-miterlimit:10;stroke-width:0.77px;}</style></defs><title>icon-up-plus-compre-junto</title><path class="cls-1" d="M200,397.75C90.93,397.75,2.25,309.07,2.25,200S90.93,2.25,200,2.25,397.75,90.93,397.75,200,309.07,397.75,200,397.75ZM200,27C104.6,27,27,104.6,27,200S104.6,373,200,373,373,295.4,373,200,295.4,27,200,27Z"/><path d="M286.52,212.36h-173a12.36,12.36,0,0,1,0-24.72h173a12.36,12.36,0,0,1,0,24.72Z"/><path d="M200,298.88a12.4,12.4,0,0,1-12.36-12.36v-173a12.36,12.36,0,0,1,24.72,0v173A12.4,12.4,0,0,1,200,298.88Z"/></svg>