<svg id="Layer_1" data-name="Layer 1" xmlns="http://www.w3.org/2000/svg" viewBox="0 0 400 400"><defs><style>.cls-1{fill:#ae1a68;fill-rule:evenodd;}</style></defs><title>icon-up-instagram</title><path id="instagram" class="cls-1" d="M388.16,71.63a100.94,100.94,0,0,0-57.74-57.76,145.68,145.68,0,0,0-48-9.18c-21-1-27.77-1.16-81.44-1.16s-60.41.23-81.44,1.16a145.68,145.68,0,0,0-48,9.18A100.94,100.94,0,0,0,13.84,71.63a144.49,144.49,0,0,0-9.18,48C3.73,140.64,3.5,147.37,3.5,201s.23,60.41,1.16,81.42a144.13,144.13,0,0,0,9.18,47.94,101,101,0,0,0,57.74,57.76,145.68,145.68,0,0,0,48,9.18c21,1,27.77,1.16,81.44,1.16s60.41-.23,81.44-1.16a145.68,145.68,0,0,0,48-9.18,101,101,0,0,0,57.74-57.76,144.13,144.13,0,0,0,9.18-47.94c.93-21.07,1.16-27.79,1.16-81.42s-.23-60.42-1.16-81.43A144.49,144.49,0,0,0,388.16,71.63ZM201,302.42A101.43,101.43,0,1,1,302.42,201v0A101.42,101.42,0,0,1,201,302.42ZM306.37,119.28a23.7,23.7,0,1,1,23.7-23.7A23.71,23.71,0,0,1,306.37,119.28ZM266.87,201A65.87,65.87,0,1,1,201,135.17h0A65.86,65.86,0,0,1,266.87,201Z"/></svg>