<svg id="Layer_1" data-name="Layer 1" xmlns="http://www.w3.org/2000/svg" viewBox="0 0 400 400"><defs><style>.cls-1{fill:#ae1a68;}</style></defs><title>icon-up-home-checkout</title><path class="cls-1" d="M388.08,174.14l0,0L225.88,12a36.6,36.6,0,0,0-51.76,0L12,174l-.16.17a36.58,36.58,0,0,0,24.35,62.35c.37,0,.75,0,1.13,0h6.46V355.94a42.88,42.88,0,0,0,42.84,42.83H150.1a11.66,11.66,0,0,0,11.65-11.65V293.56A19.57,19.57,0,0,1,181.29,274h37.42a19.56,19.56,0,0,1,19.54,19.54v93.56a11.66,11.66,0,0,0,11.65,11.65h63.45a42.87,42.87,0,0,0,42.83-42.83V236.6h6a36.6,36.6,0,0,0,25.91-62.46Zm-16.5,35.27a13.22,13.22,0,0,1-9.41,3.9H344.53A11.64,11.64,0,0,0,332.89,225v131a19.57,19.57,0,0,1-19.54,19.54h-51.8V293.56a42.88,42.88,0,0,0-42.84-42.83H181.29a42.88,42.88,0,0,0-42.84,42.83v81.92H86.66a19.57,19.57,0,0,1-19.55-19.54V225a11.64,11.64,0,0,0-11.64-11.65H38.13l-.55,0a13.2,13.2,0,0,1-9.16-3.87,13.34,13.34,0,0,1,0-18.82h0L190.6,28.42a13.29,13.29,0,0,1,18.81,0L371.53,190.54l.08.07A13.33,13.33,0,0,1,371.58,209.41Z"/></svg>