<svg id="Layer_1" data-name="Layer 1" xmlns="http://www.w3.org/2000/svg" viewBox="0 0 400 400"><defs><style>.cls-1{fill:#fff;fill-rule:evenodd;}</style></defs><title>icon-up-carrinho-branco-bt</title><path class="cls-1" d="M64.58,6a37.48,37.48,0,0,1,36.5,28.62L117.72,98H358.46A37.7,37.7,0,0,1,388,112.28a37.2,37.2,0,0,1,7,31.93l-30.9,126.18a37.35,37.35,0,0,1-36.5,28.54H159.82a37.48,37.48,0,0,1-36.5-28.54l-10.69-44h0l-.17-.8L72.22,59.22A23.08,23.08,0,0,0,49.64,41.58H5.5V6Zm91,248.92a18.91,18.91,0,0,0,18.5,14.48h138.2a18.91,18.91,0,0,0,18.5-14.48L356.08,151a18.55,18.55,0,0,0-3.39-16.21,19.29,19.29,0,0,0-15.11-7.25H124.68Zm-7.81,62.7a39.44,39.44,0,1,1-39.56,39.44,39.45,39.45,0,0,1,39.56-39.44Zm191.85,0a39.44,39.44,0,1,1-39.56,39.44A39.45,39.45,0,0,1,339.62,317.62Z"/></svg>