<svg id="Layer_1" data-name="Layer 1" xmlns="http://www.w3.org/2000/svg" viewBox="0 0 400 400"><defs><style>.cls-1{fill:#67ab15;}.cls-1,.cls-2{fill-rule:evenodd;}.cls-2{fill:#fff;}</style></defs><title>icon-up-whatsapp</title><path id="whatsapp" class="cls-1" d="M14,387l26.65-99.38C-9.11,198.49,23,86,112.29,36.37s202-17.62,251.79,71.51,17.66,201.61-71.66,251.25a185.47,185.47,0,0,1-178.09,1.11Z"/><path id="whatsapp-2" data-name="whatsapp" class="cls-2" d="M2.67,398,30.84,292.78c-52.56-94.37-18.66-213.48,75.71-266S320,8.09,372.58,102.46s18.66,213.47-75.71,266a195.6,195.6,0,0,1-188.16,1.18Zm111.21-67.76,6.63,3.95A158.72,158.72,0,1,0,66.46,280.6l4.14,6.71L54.65,346.06ZM273.76,225.92a33,33,0,0,0-28-6.21,61.54,61.54,0,0,0-16.56,20,6.88,6.88,0,0,1-8.91,1.94,126.32,126.32,0,0,1-63.17-53.84,7.7,7.7,0,0,1,1-10.52,42.51,42.51,0,0,0,11.39-18.64,40.86,40.86,0,0,0-5-22,52.68,52.68,0,0,0-16.36-24.42A22.39,22.39,0,0,0,124,115.92a48.68,48.68,0,0,0-17,38.78A49.66,49.66,0,0,0,108.7,167a95.75,95.75,0,0,0,11.81,27.21A219.66,219.66,0,0,0,132.73,213a193.69,193.69,0,0,0,53.63,49.7,162.61,162.61,0,0,0,33.55,15.85,74.09,74.09,0,0,0,38.73,6.21,47.36,47.36,0,0,0,35.41-26.18,24.74,24.74,0,0,0,1.66-13.36,41.1,41.1,0,0,0-21.95-19.32Z"/></svg>