<svg id="Layer_1" data-name="Layer 1" xmlns="http://www.w3.org/2000/svg" viewBox="0 0 400 400"><defs><style>.cls-1{fill:#61163a;fill-rule:evenodd;}</style></defs><title>icon-up-phone</title><path id="telefone" class="cls-1" d="M12.3,84.37c2.09,54.22,38.58,106.79,69.45,149.17A552.37,552.37,0,0,0,180,337.31a466.35,466.35,0,0,0,75.5,50.41,54.54,54.54,0,0,0,46.29,8.34c29-8.34,95.93-42.69,84.67-80.35a129.21,129.21,0,0,0-43.58-49.93c-17.73-14.6-48.8-40.4-69.45-16.35-12.51,12-25.44,39.62-44.83,41.44C207.71,293,189.15,268.64,176,255.41a514.81,514.81,0,0,1-57.77-70.69c-16-26.32,4-37.21,23.57-51.51a63.2,63.2,0,0,0,24.61-23.51c8.13-20.08-11-44.92-21.9-60.47a245.81,245.81,0,0,0-35.66-39.9C91.55-6.33,72.57,6.12,58,18.59A157.32,157.32,0,0,0,12.3,84.37Z"/></svg>