<svg id="Layer_1" data-name="Layer 1" xmlns="http://www.w3.org/2000/svg" viewBox="0 0 400 400"><defs><style>.cls-1{fill:#ae1a68;}</style></defs><title>icon-up-cartao-checkout</title><path class="cls-1" d="M355.11,63.5H44.89A43.48,43.48,0,0,0,1.45,106.93V293.07A43.48,43.48,0,0,0,44.89,336.5H355.11a43.48,43.48,0,0,0,43.44-43.43V106.93A43.48,43.48,0,0,0,355.11,63.5ZM44.89,88.32H355.11a18.64,18.64,0,0,1,18.62,18.61v24.82H26.27V106.93A18.64,18.64,0,0,1,44.89,88.32ZM355.11,311.68H44.89a18.64,18.64,0,0,1-18.62-18.61V156.57H373.73v136.5A18.64,18.64,0,0,1,355.11,311.68Z"/><path class="cls-1" d="M88.32,274.45H75.91a12.41,12.41,0,0,1-12.41-12.4V249.64a12.41,12.41,0,0,1,12.41-12.41H88.32a12.41,12.41,0,0,1,12.41,12.41v12.41A12.41,12.41,0,0,1,88.32,274.45Z"/></svg>