<svg id="Layer_1" data-name="Layer 1" xmlns="http://www.w3.org/2000/svg" viewBox="0 0 319 242"><defs><style>.cls-1{fill:#511130;}</style></defs><title>icon-up-lets-encrypt</title><path class="cls-1" d="M275.68,81h-18V71.76a13.45,13.45,0,0,0-26.89,0V81h-18V71.76a31.44,31.44,0,0,1,62.87,0Z"/><path class="cls-1" d="M283.07,81H205.42a6,6,0,0,0-6.06,6.06v57.38a6,6,0,0,0,6.06,6.06h77.65a6,6,0,0,0,6.06-6.06V87.1A6.23,6.23,0,0,0,283.07,81Zm-35,37.69v7.76a4,4,0,1,1-7.95,0v-7.76a7.83,7.83,0,0,1-4-7,8,8,0,0,1,15.91,0A7.48,7.48,0,0,1,248,118.73Z"/><path class="cls-1" d="M197.47,72.52H178.72a5.49,5.49,0,0,1,0-11h18.75a5.49,5.49,0,1,1,0,11Z"/><path class="cls-1" d="M210.73,43a4.84,4.84,0,0,1-3.41-1.33L192.55,29.53a5.51,5.51,0,1,1,7-8.52l14.77,12.12a5.61,5.61,0,0,1,.76,7.76A6.28,6.28,0,0,1,210.73,43Z"/><path class="cls-1" d="M244.24,30.1a5.49,5.49,0,0,1-5.49-5.49V5.67a5.5,5.5,0,0,1,11,0V24.61A5.5,5.5,0,0,1,244.24,30.1Z"/><path class="cls-1" d="M277.57,43a5.29,5.29,0,0,1-4.16-2.09,5.62,5.62,0,0,1,.76-7.76L288.94,21a5.51,5.51,0,0,1,7,8.52L281.17,41.65A5.29,5.29,0,0,1,277.57,43Z"/><path class="cls-1" d="M309.58,72.52H290.64a5.49,5.49,0,0,1,0-11h18.94a5.49,5.49,0,1,1,0,11Z"/><path class="cls-1" d="M3.93,149.78V88.62H18.7v48.29H42.37v12.87Zm87.3-21v3.41H60a9.23,9.23,0,0,0,1.14,3.22,7.06,7.06,0,0,0,2.27,2.46,10.63,10.63,0,0,0,3.22,1.71,11.87,11.87,0,0,0,3.6.57,11.5,11.5,0,0,0,9.47-4.55l9.85,6.25a21.4,21.4,0,0,1-8,6.82A27.37,27.37,0,0,1,70,151.11a28.78,28.78,0,0,1-9.09-1.51,23.35,23.35,0,0,1-7.57-4.36,22.14,22.14,0,0,1-7-16.85,21.78,21.78,0,0,1,1.89-9.47,19.46,19.46,0,0,1,4.93-7.2,21,21,0,0,1,7.38-4.54,24.17,24.17,0,0,1,9.09-1.71A25.37,25.37,0,0,1,78.35,107a21.42,21.42,0,0,1,6.82,4.54,20.74,20.74,0,0,1,4.36,7.39A27.7,27.7,0,0,1,91.23,128.76Zm-13.07-5.3a9.24,9.24,0,0,0-2.08-5.87c-1.32-1.7-3.6-2.46-6.44-2.46a12.23,12.23,0,0,0-3.79.57,9.67,9.67,0,0,0-3,1.7,9.48,9.48,0,0,0-2.08,2.65,9.12,9.12,0,0,0-1,3.22H78.16ZM114,117.4v16.48a7.24,7.24,0,0,0,1.13,4.54c.76,1,2.08,1.52,4.17,1.52a9.17,9.17,0,0,0,2.27-.19,11.33,11.33,0,0,0,1.89-.57l.19,10.42c-.94.37-2.27.56-3.78.94a36.74,36.74,0,0,1-4.55.38,19.77,19.77,0,0,1-7.2-1.14,11.93,11.93,0,0,1-4.73-3,11,11,0,0,1-2.46-4.92,31.26,31.26,0,0,1-.76-6.25V117.4h-7V106.8h6.82V95.43h14V106.8h10v10.6Zm23.1-29.92c-4.17,0-7.58,3-7.58,7,0,4.16,2.84,6.82,7,6.82a1.42,1.42,0,0,0,.95-.19A7.94,7.94,0,0,1,131,106.8h-.57v6.63h.76a16.17,16.17,0,0,0,9.09-4.17c3.22-3,4.92-7.58,4.92-12.88C145.2,91.27,141.79,87.48,137.06,87.48Zm32.76,32a15.16,15.16,0,0,0-4-2.85,11.13,11.13,0,0,0-4.92-1.13,7.67,7.67,0,0,0-3.6.76,2.67,2.67,0,0,0-1.7,2.65,2.77,2.77,0,0,0,1.89,2.65,31.49,31.49,0,0,0,6.06,1.7,24.49,24.49,0,0,1,4.93,1.52,23.09,23.09,0,0,1,4.35,2.46,10.41,10.41,0,0,1,3.22,3.79,11.48,11.48,0,0,1,1.14,5.3,13,13,0,0,1-1.71,6.82,12.47,12.47,0,0,1-4.35,4.54,20,20,0,0,1-5.87,2.46,26.37,26.37,0,0,1-6.63.76,30.67,30.67,0,0,1-10.23-1.7,21.12,21.12,0,0,1-8.33-4.93L148,136a17.82,17.82,0,0,0,4.74,3.41,12.61,12.61,0,0,0,5.87,1.32,7.43,7.43,0,0,0,3.41-.75,3,3,0,0,0,1.7-2.84,3.44,3.44,0,0,0-2.08-3,34.33,34.33,0,0,0-6.44-1.9,41,41,0,0,1-4.55-1.32,13.56,13.56,0,0,1-4-2.28,13,13,0,0,1-2.84-3.59,11.27,11.27,0,0,1-1.14-5.12,12.34,12.34,0,0,1,1.7-6.62,13.22,13.22,0,0,1,4.17-4.36,15.28,15.28,0,0,1,5.68-2.46,23.51,23.51,0,0,1,6.25-.76,31.86,31.86,0,0,1,9.47,1.52,18.67,18.67,0,0,1,7.76,4.54ZM3.93,220.61V159.44H45v12.5H18.13v11.55H43.51v11.74H18.13v12.69H46.54v12.69Zm79.92,0V197.13a20.82,20.82,0,0,0-.38-3.41,9.94,9.94,0,0,0-1-2.84A4.53,4.53,0,0,0,80.63,189a5.42,5.42,0,0,0-3.22-.76A6.45,6.45,0,0,0,74,189a8.18,8.18,0,0,0-2.46,2.08,15.06,15.06,0,0,0-1.52,3,10.65,10.65,0,0,0-.57,3.41V220.8H55.25v-43H68.88v5.87h.19A9.34,9.34,0,0,1,71.16,181,10.52,10.52,0,0,1,74,178.76a20.17,20.17,0,0,1,3.6-1.52,15,15,0,0,1,4.16-.56,17.7,17.7,0,0,1,7.39,1.51,14.65,14.65,0,0,1,4.92,4,15.58,15.58,0,0,1,2.65,5.68,23.93,23.93,0,0,1,.76,6.44V220.8H83.85Zm50.75-29.16a8.53,8.53,0,0,0-3.22-2.46,11.07,11.07,0,0,0-4.17-1,8.82,8.82,0,0,0-4,1,7.56,7.56,0,0,0-3,2.46,20.67,20.67,0,0,0-2.08,3.41,11.79,11.79,0,0,0,0,8.33,8.05,8.05,0,0,0,2.08,3.41,10.65,10.65,0,0,0,3.22,2.46,10.35,10.35,0,0,0,4.17.95,11.73,11.73,0,0,0,4.36-.76,8.81,8.81,0,0,0,3.4-2.46l7.77,9.65a18.57,18.57,0,0,1-6.82,4,28.24,28.24,0,0,1-8.9,1.52,30,30,0,0,1-9.47-1.52,20.08,20.08,0,0,1-7.76-4.54,22.24,22.24,0,0,1-7-16.86,21.64,21.64,0,0,1,1.9-9.47,22.22,22.22,0,0,1,5.11-7.19,21,21,0,0,1,7.76-4.55,26.29,26.29,0,0,1,9.47-1.51,36.74,36.74,0,0,1,4.55.38c1.51.37,3,.75,4.35,1.13a37.84,37.84,0,0,1,4,1.9,13.13,13.13,0,0,1,3,2.46Zm41.28-2.09A6.66,6.66,0,0,0,174,189h-1.71a11.64,11.64,0,0,0-4.73.94,10.23,10.23,0,0,0-3,2.46,10.63,10.63,0,0,0-1.71,3.22,9.69,9.69,0,0,0-.56,3v22H148v-43h13.64v6.25h.19a12.85,12.85,0,0,1,4.73-5.3,12.67,12.67,0,0,1,7-2.08h1.7c.57,0,.95.19,1.33.19Zm33.33,37.69c-1,2.27-1.89,4.17-2.84,6.06a21.88,21.88,0,0,1-3.79,4.54,16.6,16.6,0,0,1-5.11,2.84,25,25,0,0,1-7,.95,31.91,31.91,0,0,1-4.16-.19,17,17,0,0,1-3.6-.76l1.51-11.93,2.28.57a9.13,9.13,0,0,0,2.27.19c2.27,0,3.79-.57,4.73-1.51a10.48,10.48,0,0,0,2.46-4.36l1.33-3.6-18-42.23H195l9.66,27.65h.19l8.52-27.65h15ZM280,199a26.92,26.92,0,0,1-1.33,8.71,25.17,25.17,0,0,1-4,7.39,21.25,21.25,0,0,1-6.43,5.11,18.44,18.44,0,0,1-8.72,1.9,20.69,20.69,0,0,1-7.57-1.52,14.09,14.09,0,0,1-5.49-4.35h-.19v25.56H232.12V178.19h13.45v5.3h.19a19.09,19.09,0,0,1,5.49-4.54,16.37,16.37,0,0,1,8.33-1.9,18.72,18.72,0,0,1,8.53,1.9,18.19,18.19,0,0,1,6.43,4.92,24.27,24.27,0,0,1,4,7.2A19.76,19.76,0,0,1,280,199Zm-13.83,0a14.32,14.32,0,0,0-.57-4,9.65,9.65,0,0,0-1.89-3.41,8.57,8.57,0,0,0-3.22-2.47,10.56,10.56,0,0,0-8.71,0,10.4,10.4,0,0,0-3.22,2.47,11.14,11.14,0,0,0-2.08,3.59,10.8,10.8,0,0,0,0,8,13.83,13.83,0,0,0,2.08,3.6,9.8,9.8,0,0,0,7.58,3.41,9.85,9.85,0,0,0,4.35-.95,10.53,10.53,0,0,0,3.22-2.46,10.74,10.74,0,0,0,1.89-3.6A16.87,16.87,0,0,0,266.21,199Zm36.36-10.79V204.7a7.27,7.27,0,0,0,1.14,4.55c.76.95,2.08,1.51,4.16,1.51a9.25,9.25,0,0,0,2.28-.19A12.12,12.12,0,0,0,312,210l.19,10.41a26.13,26.13,0,0,1-8.33,1.33,19.77,19.77,0,0,1-7.2-1.14,12,12,0,0,1-4.73-3,10.86,10.86,0,0,1-2.46-4.92,31.35,31.35,0,0,1-.76-6.25V188.23h-6.82V177.62h6.82V166.26h13.82v11.36h10v10.61Z"/></svg>