<svg id="Layer_1" data-name="Layer 1" xmlns="http://www.w3.org/2000/svg" viewBox="0 0 937 242"><defs><style>.cls-1{fill:#511130;}</style></defs><title>icon-up-google-safe-brownsing</title><path class="cls-1" d="M262.23,159.16a80.55,80.55,0,0,1-24.17-60,80.38,80.38,0,0,1,24.28-60.06,82,82,0,0,1,59.47-23.69A84.69,84.69,0,0,1,369.32,29,74.68,74.68,0,0,1,399,67.23H359.35a38.76,38.76,0,0,0-37.54-21.58A47.81,47.81,0,0,0,285.6,60.31a54.12,54.12,0,0,0-14,38.89,54.19,54.19,0,0,0,14,39,45.5,45.5,0,0,0,34.26,14.66,47.39,47.39,0,0,0,31.9-10A43.56,43.56,0,0,0,366.2,116H311.74V90.85h89.83V116a80.8,80.8,0,0,1-81.76,66.89,79.39,79.39,0,0,1-57.58-23.7Zm202.14.23a27.26,27.26,0,0,0,20.15-8.64A33.48,33.48,0,0,0,493,126.36a33.33,33.33,0,0,0-8.34-24.31,27.13,27.13,0,0,0-20.15-8.52,26.48,26.48,0,0,0-20,8.52,34.05,34.05,0,0,0-8.13,24.38,34.06,34.06,0,0,0,8.13,24.39,26.44,26.44,0,0,0,19.87,8.57Zm-40.3,7.94A54.78,54.78,0,0,1,408,126.24a53.8,53.8,0,0,1,16.26-40.89,60.43,60.43,0,0,1,80.78,0,53.84,53.84,0,0,1,16.26,40.89,54.28,54.28,0,0,1-16.38,41.09,56.41,56.41,0,0,1-40.59,15.72,55.45,55.45,0,0,1-40.26-15.69Zm160.36-7.94a27.24,27.24,0,0,0,20.16-8.64A33.48,33.48,0,0,0,613,126.37a33.36,33.36,0,0,0-8.35-24.32,27.09,27.09,0,0,0-20.15-8.51,26.5,26.5,0,0,0-19.95,8.51,34.08,34.08,0,0,0-8.13,24.39,34.08,34.08,0,0,0,8.13,24.39,26.4,26.4,0,0,0,19.86,8.56Zm-40.27,7.94a54.83,54.83,0,0,1-16.08-41.09,53.87,53.87,0,0,1,16.26-40.89,60.45,60.45,0,0,1,80.79,0,53.84,53.84,0,0,1,16.26,40.89A54.28,54.28,0,0,1,625,167.33,56.41,56.41,0,0,1,584.43,183a55.38,55.38,0,0,1-40.3-15.65Zm118.61-.28A57.68,57.68,0,0,1,648,126.26a57.21,57.21,0,0,1,14.69-40.59A48.78,48.78,0,0,1,700,69.89a38.5,38.5,0,0,1,34.54,18.66V71.48h27.79V182.25a54.51,54.51,0,0,1-13.9,38.61,50.58,50.58,0,0,1-39,15,68.08,68.08,0,0,1-39.9-10.43,39.41,39.41,0,0,1-16.78-29.68h27.4a21.4,21.4,0,0,0,9.92,11.62,36.23,36.23,0,0,0,18.48,4.25,25.33,25.33,0,0,0,18.56-7.34,29.73,29.73,0,0,0,7.45-22V163a39,39,0,0,1-34.73,20,48.34,48.34,0,0,1-37.1-16Zm63-16.86a31.8,31.8,0,0,0,8.73-23.71,31.81,31.81,0,0,0-8.73-23.72,28.51,28.51,0,0,0-40.77-.12,31.69,31.69,0,0,0-8.64,23.65,32.16,32.16,0,0,0,8.74,23.82,28.12,28.12,0,0,0,40.67.08Zm58.38,31.27V34.56h28V181.45Zm96.28,1.59a52,52,0,0,1-39.17-15.59,56.71,56.71,0,0,1-15.09-41.19,55.83,55.83,0,0,1,15.18-41,52.83,52.83,0,0,1,39.3-15.39,54.62,54.62,0,0,1,39.6,15,53.12,53.12,0,0,1,15.48,40A68.83,68.83,0,0,1,935,135.6H854.82a26.12,26.12,0,0,0,7.94,17.27,24.69,24.69,0,0,0,17.67,6.55,23.12,23.12,0,0,0,21.43-11.91H932a48.32,48.32,0,0,1-18.47,25.61,55,55,0,0,1-33.16,9.94Zm26.38-65.53a24,24,0,0,0-8-17.47,26.19,26.19,0,0,0-18-6.55,24.79,24.79,0,0,0-17.57,6.55,27.71,27.71,0,0,0-8.43,17.47ZM428.76,27.06a4.42,4.42,0,0,0-2.89.9,3,3,0,0,0-1.11,2.51,3.56,3.56,0,0,0,.85,2.5,5.1,5.1,0,0,0,2.17,1.39,25.6,25.6,0,0,0,3,.85c1.06.26,2.13.57,3.2.93a16,16,0,0,1,2.95,1.35,5.76,5.76,0,0,1,2.17,2.34,7.64,7.64,0,0,1,.85,3.69A8.08,8.08,0,0,1,437,49.75a11,11,0,0,1-7.68,2.64,12.42,12.42,0,0,1-7.73-2.26,7.5,7.5,0,0,1-3-6.31h6.3a3.87,3.87,0,0,0,4.43,3.88,4.61,4.61,0,0,0,3.2-1.1,3.56,3.56,0,0,0,1.19-2.8A3.16,3.16,0,0,0,432.18,41a11.68,11.68,0,0,0-3.77-1.48c-1.48-.33-3-.74-4.44-1.21a8.3,8.3,0,0,1-3.78-2.51,6.92,6.92,0,0,1-1.57-4.76,7.87,7.87,0,0,1,2.9-6.4A11.35,11.35,0,0,1,429,22.31a11.91,11.91,0,0,1,7.35,2.08,8.07,8.07,0,0,1,3,6.34h-6.47a3.94,3.94,0,0,0-1.26-2.67,4.07,4.07,0,0,0-2.87-1Zm36.07,25.06L462.9,46.6H451.46l-1.89,5.51h-6.29l10.41-29.46h7l10.34,29.47ZM453,42.05h8.4L457.18,29.8Zm22.17,10.06V22.72h18.19v4.55H481.14V35h9.37v4.54h-9.37V52.08Zm39.91-29.47v4.55H504v7.7h9.76v4.54H504v8.13h11.09v4.55h-17V22.65Zm18.72.09h11.91A10.61,10.61,0,0,1,552.8,25a6.91,6.91,0,0,1,2.55,5.55,6.71,6.71,0,0,1-5.72,6.62A7.24,7.24,0,0,1,556,44.38,6.8,6.8,0,0,1,553.39,50a10.88,10.88,0,0,1-7.07,2.13H533.75Zm6,4.54v7.65h5.35a4.68,4.68,0,0,0,3.14-1,3.5,3.5,0,0,0,1.16-2.8,3.54,3.54,0,0,0-1.16-2.82,4.55,4.55,0,0,0-3.14-1Zm0,20.31h6a4.64,4.64,0,0,0,3.19-1.08,4.23,4.23,0,0,0,0-5.91,4.6,4.6,0,0,0-3.2-1.1h-6Zm27.35-7.16V52.13h-6V22.72H572a11.22,11.22,0,0,1,7.86,2.55,8.23,8.23,0,0,1,2.75,6.3,8.82,8.82,0,0,1-1.7,5.17A8.62,8.62,0,0,1,575.6,40l7.47,12.1h-7l-7-11.72Zm0-13.14v8.59H572a4.68,4.68,0,0,0,3.41-1.16,4.22,4.22,0,0,0,1.18-3.14,4.19,4.19,0,0,0-1.18-3.14A4.64,4.64,0,0,0,572,27.27Zm41.2,17.1a9.82,9.82,0,0,0,2.49-7,9.77,9.77,0,0,0-2.49-7,9.35,9.35,0,0,0-13,0,9.71,9.71,0,0,0-2.51,7,9.73,9.73,0,0,0,2.51,7,9.34,9.34,0,0,0,13,0Zm-6.48,8.07a14.71,14.71,0,0,1-10.71-4.25,14.53,14.53,0,0,1-4.35-10.84,14.46,14.46,0,0,1,4.36-10.79,15.53,15.53,0,0,1,21.37,0,14.43,14.43,0,0,1,4.34,10.79,14.44,14.44,0,0,1-4.34,10.8,14.65,14.65,0,0,1-10.68,4.25Zm52.59-29.72h6.4l-8.51,29.4h-6.8l-5.68-20.51L634,52.13h-6.74l-8.35-29.4h6.32l5.68,22.65,6-22.7h6.69l5.61,22.49ZM674,27.07a4.42,4.42,0,0,0-2.89.9A3.05,3.05,0,0,0,670,30.48a3.58,3.58,0,0,0,.85,2.5A5.26,5.26,0,0,0,673,34.37a27.75,27.75,0,0,0,3,.85c1.06.26,2.13.57,3.2.93a15.74,15.74,0,0,1,3,1.35,5.85,5.85,0,0,1,2.18,2.34,7.87,7.87,0,0,1,.85,3.69,8.14,8.14,0,0,1-2.89,6.23,11,11,0,0,1-7.65,2.62,12.35,12.35,0,0,1-7.81-2.22,7.51,7.51,0,0,1-2.95-6.34h6.34a3.89,3.89,0,0,0,4.43,3.88,4.64,4.64,0,0,0,3.2-1.06,3.54,3.54,0,0,0,1.18-2.8,3.12,3.12,0,0,0-1.56-2.75,11.59,11.59,0,0,0-3.77-1.48c-1.47-.34-2.95-.74-4.43-1.22a8.3,8.3,0,0,1-3.78-2.51,6.91,6.91,0,0,1-1.56-4.74,7.84,7.84,0,0,1,2.9-6.39,11.36,11.36,0,0,1,7.47-2.41,11.94,11.94,0,0,1,7.35,2.09,8,8,0,0,1,3,6.34h-6.48a4,4,0,0,0-1.26-2.68,4.12,4.12,0,0,0-2.87-1Zm16.75,25V22.72h6v29.4Zm31.49-29.48h5.95V52.12h-5.95l-13.3-20.36V52.14h-6V22.65h6L722.23,43Zm14.95,25.47a14.48,14.48,0,0,1-4.34-10.78,14.45,14.45,0,0,1,4.36-10.78,14.71,14.71,0,0,1,10.66-4.26,15.3,15.3,0,0,1,8.52,2.45,13.43,13.43,0,0,1,5.33,6.86h-7.12a7,7,0,0,0-6.74-3.87,8.58,8.58,0,0,0-6.5,2.63,9.73,9.73,0,0,0-2.51,7,9.71,9.71,0,0,0,2.51,7A8.08,8.08,0,0,0,747.49,47a8.48,8.48,0,0,0,5.73-1.79,7.8,7.8,0,0,0,2.54-4.82h-9.68v-4.5h16.17v4.5a14.89,14.89,0,0,1-25,7.76Z"/><path class="cls-1" d="M105.26,240.48v-.66A154.12,154.12,0,0,1,82.35,231,157.87,157.87,0,0,1,47.62,208.6,127.38,127.38,0,0,1,16,168.7,134.08,134.08,0,0,1,2.54,107.09c0-.37-.09-38.59,0-56.7V44C2.45,32,2.45,31.74,10.47,29.78c2.31-.57,8.51-2.43,17.1-5A704.9,704.9,0,0,1,105.09,4.19V4a11.24,11.24,0,0,1,1.42.06A12.13,12.13,0,0,0,108,4v.19a694.28,694.28,0,0,1,76.86,20.56c8.51,2.55,14.64,4.44,16.94,5,7.93,2,7.93,2.22,7.85,14.26v6.36c.09,18.19,0,56.31,0,56.7a135.05,135.05,0,0,1-13.4,61.57,127.41,127.41,0,0,1-31.32,39.91,156.55,156.55,0,0,1-34.41,22.35,151.68,151.68,0,0,1-22.7,8.87v.7c-.42-.09-.83-.2-1.24-.32l-1.24.32ZM62.63,102.72a5.1,5.1,0,0,0-3.58,1.47L47.93,114.91a5.17,5.17,0,0,0-.13,7.29l30.37,31.49.06.06L89,164.84a5.17,5.17,0,0,0,7.28.12l68.6-66.24a5.18,5.18,0,0,0,.12-7.29L154.25,80.3a5.17,5.17,0,0,0-7.29-.12L93.19,132.09l-26.83-27.8a5.07,5.07,0,0,0-3.74-1.57Z"/></svg>