<svg id="Layer_1" data-name="Layer 1" xmlns="http://www.w3.org/2000/svg" viewBox="0 0 695 210"><defs><style>.cls-1{fill:#511130;}</style></defs><title>icon-up-UPNEXT</title><path class="cls-1" d="M79.1,139.69l19.16,19.1c9,10.05,23.53,3.49,24-8.79,0-.4,0-.8,0-1.21V58.59c0-5.55-1.32-9.53-4.07-12.37s-7.07-4.15-12.62-4.15H14A13.54,13.54,0,0,0,4.19,64.89L24.43,85.23c.15.17.32.31.46.48a13.59,13.59,0,0,0,10.63,5.15H73.46v36.69c0,7.24,2.92,9.44,5.64,12.14Z"/><path class="cls-1" d="M149.25,128.53V53c0-6.38,5.38-11.49,12.11-11.49S173.47,46.57,173.47,53v75.58c0,7.92,6.47,14,14.81,14h14.81V53c0-6.38,5.38-11.49,12.11-11.49S227.32,46.57,227.32,53V154.06c0,6.39-5.39,11.49-12.12,11.49H188.28C166.74,165.55,149.25,149,149.25,128.53Z"/><path class="cls-1" d="M246.15,198.75V54.46c0-6.38,5.38-11.49,12.11-11.49h26.92c21.54,0,39,16.6,39,37v49c0,20.43-17.5,37-39,37h-14.8v32.7c0,6.38-5.39,11.49-12.12,11.49S246.15,205.13,246.15,198.75Zm39-132.8h-14.8v77.12h14.8c8.35,0,14.81-6.13,14.81-14V80C300,72.08,293.53,66,285.18,66Z"/><path class="cls-1" d="M343,155.58V54.46C343,48.08,348.37,43,355.1,43H382c21.53,0,39,16.6,39,37v75.58c0,6.38-5.65,11.49-12.11,11.49-6.73,0-12.12-5.11-12.12-11.49V80c0-7.92-6.46-14-14.8-14H367.21v89.63c0,6.38-5.65,11.49-12.11,11.49C348.37,167.07,343,162,343,155.58Z"/><path class="cls-1" d="M439.94,130V79c0-20.43,17.5-37,39-37s39,16.6,39,37v25.53c0,6.38-5.38,11.49-12.11,11.49H464.17v14c0,5.88,3.5,10.73,9.15,13A15.55,15.55,0,0,0,489.48,140a11.73,11.73,0,0,1,8.34-3.57,12.55,12.55,0,0,1,8.89,3.57,11.29,11.29,0,0,1,0,16.34,40.6,40.6,0,0,1-42.54,7.92C449.1,158.39,439.94,145.36,439.94,130ZM464.17,79V93h29.62V79c0-7.92-6.47-14-14.81-14S464.17,71.06,464.17,79Z"/><path class="cls-1" d="M530.16,150l26.92-46.47L531.24,59.06c-3.23-5.87-1.35-12.51,4.84-15.58a12.62,12.62,0,0,1,16.43,4.35l18.3,31.91,18.58-31.91c3.23-5.37,10.23-7.41,16.42-4.35s8.08,9.71,4.85,15.58l-25.85,44.43L611.73,150c3.23,5.87,1.35,12.77-4.84,15.58-6.2,3.06-13.19,1.53-16.43-4.34l-19.65-33.71L551.43,161.2c-3.23,5.87-10.77,7.4-16.42,4.34C528.82,162.73,526.93,155.83,530.16,150Z"/><path class="cls-1" d="M622.23,56.94c0-6.38,5.38-11.49,12.11-11.49h9.42V12.1c0-6.38,5.39-11.49,12.12-11.49S668,5.72,668,12.1V45.45H682.8c6.73,0,12.12,5.11,12.12,11.49s-5.39,11.49-12.12,11.49H668v64.09c0,7.92,6.47,14,14.81,14,6.73,0,12.12,5.1,12.12,11.49s-5.39,11.49-12.12,11.49c-21.54,0-39-16.6-39-37V68.43h-9.42C627.61,68.43,622.23,63.33,622.23,56.94Z"/></svg>