<svg id="Layer_1" data-name="Layer 1" xmlns="http://www.w3.org/2000/svg" viewBox="0 0 400 400"><defs><style>.cls-1{fill:#ae1a68;}.cls-2{fill:#fff;fill-rule:evenodd;}</style></defs><title>icon-up-coluna-ativo</title><path id="Rounded_Rectangle_2222_copy" data-name="Rounded Rectangle 2222 copy" class="cls-1" d="M1.76,71H398.82c-.32,0-.32,259,0,259H1.76C1.5,330,1.5,71,1.76,71Z"/><path id="Rounded_Rectangle_2224_copy_2" data-name="Rounded Rectangle 2224 copy 2" class="cls-2" d="M105.37,152.79h10.9a27.29,27.29,0,0,1,27.26,27.26v47.71A27.3,27.3,0,0,1,116.27,255h-10.9a27.3,27.3,0,0,1-27.26-27.27V180.05A27.29,27.29,0,0,1,105.37,152.79Zm92.69,0H209a27.3,27.3,0,0,1,27.27,27.26v47.71A27.31,27.31,0,0,1,209,255h-10.9a27.3,27.3,0,0,1-27.26-27.27V180.05A27.29,27.29,0,0,1,198.06,152.79Zm87.24,0h10.9a27.3,27.3,0,0,1,27.27,27.26v47.71A27.31,27.31,0,0,1,296.2,255H285.3A27.3,27.3,0,0,1,258,227.76V180.05a27.3,27.3,0,0,1,27.27-27.26Z"/></svg>