<svg id="Layer_1" data-name="Layer 1" xmlns="http://www.w3.org/2000/svg" viewBox="0 0 400 400"><defs><style>.cls-1{fill:#8a8f93;fill-rule:evenodd;}</style></defs><title>icon-up-email</title><path id="e-mail" class="cls-1" d="M341.39,39.16H58.61A58.33,58.33,0,0,0,1.26,98.27V301.71a58.32,58.32,0,0,0,57.35,59.13H341.39a58.32,58.32,0,0,0,57.35-59.13V98.27A58.33,58.33,0,0,0,341.39,39.16Zm0,28.26a30.74,30.74,0,0,1,6.82.83L229,207.68a37.86,37.86,0,0,1-57.92,0L51.79,68.25a30.65,30.65,0,0,1,6.81-.83ZM371.3,301.71a30.46,30.46,0,0,1-29.91,30.87H58.61A30.46,30.46,0,0,1,28.7,301.71V98.27A30,30,0,0,1,31,86.59L150.41,226.36a65.65,65.65,0,0,0,49.59,23,64.93,64.93,0,0,0,49.4-23L369,86.59a30,30,0,0,1,2.27,11.68V301.71Z"/></svg>