<svg id="Layer_1" data-name="Layer 1" xmlns="http://www.w3.org/2000/svg" viewBox="0 0 400 400"><defs><style>.cls-1{fill:#ae1a68;}.cls-2{fill:#fff;fill-rule:evenodd;}</style></defs><title>icon-up-lista-ativo</title><path id="Rounded_Rectangle_2222" data-name="Rounded Rectangle 2222" class="cls-1" d="M1.38,70.43h370a27.28,27.28,0,0,1,27.28,27.28V302.29a27.28,27.28,0,0,1-27.28,27.28H1.38V70.43Z"/><path id="Rounded_Rectangle_2224_copy_6" data-name="Rounded Rectangle 2224 copy 6" class="cls-2" d="M103.16,128.39h3.41a12.35,12.35,0,0,1,12.27,12.44V144a12.37,12.37,0,0,1-12.19,12.55h-3.49a12.37,12.37,0,0,1-12.27-12.47v-3.22a12.35,12.35,0,0,1,12.23-12.48Zm40.24,0H296.84a12.35,12.35,0,0,1,12.27,12.44V144a12.37,12.37,0,0,1-12.19,12.55H143.4a12.39,12.39,0,0,1-12.28-12.47v-3.22a12.37,12.37,0,0,1,12.24-12.48Zm-40.24,57.49h3.41a12.42,12.42,0,0,1,12.27,12.55v3.14a12.35,12.35,0,0,1-12.23,12.48h-3.45a12.35,12.35,0,0,1-12.27-12.44v-3.18A12.42,12.42,0,0,1,103.16,185.88Zm40.24,0H296.84a12.42,12.42,0,0,1,12.27,12.55v3.14a12.35,12.35,0,0,1-12.23,12.48H143.4a12.37,12.37,0,0,1-12.28-12.44v-3.18A12.43,12.43,0,0,1,143.4,185.88Zm-40.24,57.56h3.41a12.37,12.37,0,0,1,12.27,12.47v3.15a12.37,12.37,0,0,1-12.19,12.55h-3.49a12.37,12.37,0,0,1-12.27-12.47V256a12.37,12.37,0,0,1,12.19-12.55Zm40.24,0H296.84a12.37,12.37,0,0,1,12.27,12.47v3.15a12.37,12.37,0,0,1-12.19,12.55H143.4a12.39,12.39,0,0,1-12.28-12.47V256a12.38,12.38,0,0,1,12.2-12.55Z"/></svg>