<?xml version="1.0" encoding="utf-8"?>
<!-- Generator: Adobe Illustrator 23.0.0, SVG Export Plug-In . SVG Version: 6.00 Build 0)  -->
<svg version="1.1" id="Layer_1" xmlns="http://www.w3.org/2000/svg" xmlns:xlink="http://www.w3.org/1999/xlink" x="0px" y="0px"
	 viewBox="0 0 695 222" style="enable-background:new 0 0 695 222;" xml:space="preserve">
<style type="text/css">
	.st0{fill:#494949;}
</style>
<title>logo-UPNEXT</title>
<path class="st0" d="M79.1,139.7l19.2,19.1c9,10.1,23.5,3.5,24-8.8c0-0.4,0-0.8,0-1.2V58.6c0-5.5-1.3-9.5-4.1-12.4
	s-7.1-4.2-12.6-4.2H14c-7.5,0-13.5,6.1-13.5,13.6c0,3.4,1.3,6.7,3.7,9.2l20.2,20.3c0.1,0.2,0.3,0.3,0.5,0.5
	c2.6,3.2,6.5,5.1,10.6,5.2h37.9v36.7C73.5,134.8,76.4,137,79.1,139.7z"/>
<path class="st0" d="M149.3,128.5V53c0-6.4,5.4-11.5,12.1-11.5s12.1,5.1,12.1,11.5v75.6c0,7.9,6.5,14,14.8,14h14.8V53
	c0-6.4,5.4-11.5,12.1-11.5s12.1,5.1,12.1,11.5v101.1c0,6.4-5.4,11.5-12.1,11.5h-26.9C166.7,165.5,149.3,149,149.3,128.5z"/>
<path class="st0" d="M246.1,198.7V54.5c0-6.4,5.4-11.5,12.1-11.5h26.9c21.5,0,39,16.6,39,37v49c0,20.4-17.5,37-39,37h-14.8v32.7
	c0,6.4-5.4,11.5-12.1,11.5S246.1,205.1,246.1,198.7z M285.1,65.9h-14.8v77.1h14.8c8.4,0,14.8-6.1,14.8-14V80
	C300,72.1,293.5,66,285.1,65.9L285.1,65.9z"/>
<path class="st0" d="M343,155.6V54.5c0-6.4,5.4-11.5,12.1-11.5H382c21.5,0,39,16.6,39,37v75.6c0,6.4-5.6,11.5-12.1,11.5
	c-6.7,0-12.1-5.1-12.1-11.5V80c0-7.9-6.5-14-14.8-14h-14.8v89.6c0,6.4-5.6,11.5-12.1,11.5C348.4,167.1,343,162,343,155.6z"/>
<path class="st0" d="M439.9,130V79c0-20.4,17.5-37,39-37s39,16.6,39,37v25.5c0,6.4-5.4,11.5-12.1,11.5h-41.7v14
	c0,5.9,3.5,10.7,9.1,13c5.5,2.2,11.8,1,16.2-3c2.2-2.3,5.2-3.5,8.3-3.6c3.3,0,6.5,1.3,8.9,3.6c4.5,4.3,4.7,11.4,0.4,16
	c-0.1,0.1-0.2,0.3-0.4,0.4c-11.5,10.6-28,13.7-42.5,7.9C449.1,158.4,439.9,145.4,439.9,130z M464.2,79v14h29.6V79
	c0-7.9-6.5-14-14.8-14S464.2,71.1,464.2,79z"/>
<path class="st0" d="M530.2,150l26.9-46.5l-25.8-44.5c-3.2-5.9-1.3-12.5,4.8-15.6c5.8-3,12.9-1.1,16.4,4.3l18.3,31.9l18.6-31.9
	c3.2-5.4,10.2-7.4,16.4-4.3s8.1,9.7,4.8,15.6l-25.8,44.4l26.9,46.5c3.2,5.9,1.3,12.8-4.8,15.6c-6.2,3.1-13.2,1.5-16.4-4.3
	l-19.7-33.7l-19.4,33.7c-3.2,5.9-10.8,7.4-16.4,4.3C528.8,162.7,526.9,155.8,530.2,150z"/>
<path class="st0" d="M622.2,56.9c0-6.4,5.4-11.5,12.1-11.5h9.4V12.1c0-6.4,5.4-11.5,12.1-11.5S668,5.7,668,12.1v33.3h14.8
	c6.7,0,12.1,5.1,12.1,11.5s-5.4,11.5-12.1,11.5H668v64.1c0,7.9,6.5,14,14.8,14c6.7,0,12.1,5.1,12.1,11.5s-5.4,11.5-12.1,11.5
	c-21.5,0-39-16.6-39-37V68.4h-9.4C627.6,68.4,622.2,63.3,622.2,56.9z"/>
<path class="st0" d="M341.8,204v-9.1c0-3.8,3.1-6.9,6.9-6.9h2.6v-7.5c-0.1-1.2,0.8-2.2,2-2.3c1.2-0.1,2.2,0.8,2.3,2
	c0,0.1,0,0.2,0,0.3v28.2c0,1.2-0.9,2.1-2.1,2.1c0,0,0,0,0,0h-4.7C344.8,210.9,341.8,207.8,341.8,204z M346,194.9v9.1
	c0,1.4,1.1,2.6,2.5,2.6c0,0,0,0,0.1,0h2.6v-14.3h-2.6c-1.4,0-2.6,1.1-2.6,2.5C346,194.8,346,194.9,346,194.9L346,194.9z"/>
<path class="st0" d="M366.9,182.9c0-1.4,1.2-2.6,2.6-2.6c1.4,0,2.6,1.2,2.6,2.6s-1.2,2.6-2.6,2.6l0,0
	C368,185.5,366.9,184.4,366.9,182.9C366.8,182.9,366.8,182.9,366.9,182.9z M369.5,211c-1.2,0-2.1-0.9-2.1-2.1c0,0,0,0,0,0V190
	c0-1.2,1-2.1,2.1-2.1s2.1,1,2.1,2.1v18.9C371.6,210.1,370.6,211,369.5,211z"/>
<path class="st0" d="M382.9,204v-9.1c0-3.8,3.1-6.9,6.9-6.9h4.7c1.2,0,2.1,1,2.1,2.1c0,0,0,0,0,0v23.5c0,3.8-3,6.9-6.8,6.9
	c-1.8,0-3.6-0.7-4.9-2c-0.8-0.8-0.9-2.1-0.1-2.9c0,0,0,0,0.1-0.1c0.7-0.8,2-0.9,2.8-0.2c0.1,0.1,0.1,0.1,0.2,0.2
	c0.7,0.7,1.9,1,2.8,0.6c1-0.4,1.6-1.4,1.6-2.4v-2.8h-2.6C385.9,210.9,382.9,207.8,382.9,204C382.8,204,382.8,204,382.9,204z
	 M387.1,194.9v9.1c0,1.4,1.1,2.6,2.5,2.6c0,0,0,0,0.1,0h2.6v-14.3h-2.6C388.3,192.3,387.1,193.4,387.1,194.9
	C387.1,194.9,387.1,194.9,387.1,194.9L387.1,194.9z"/>
<path class="st0" d="M407.7,182.9c0-1.4,1.2-2.6,2.6-2.6c1.4,0,2.6,1.2,2.6,2.6c0,1.4-1.2,2.6-2.6,2.6
	C408.9,185.5,407.8,184.4,407.7,182.9C407.7,182.9,407.7,182.9,407.7,182.9z M410.3,211c-1.2,0-2.1-0.9-2.1-2.1c0,0,0,0,0,0V190
	c0-1.2,1-2.1,2.1-2.1s2.1,1,2.1,2.1v18.9C412.4,210.1,411.5,211,410.3,211L410.3,211z"/>
<path class="st0" d="M422.2,190.2c0-1.2,1-2.1,2.1-2.1l0,0h1.6v-7.5c-0.1-1.2,0.8-2.2,2-2.3c1.2-0.1,2.2,0.8,2.3,2
	c0,0.1,0,0.2,0,0.3v7.5h2.6c1.2,0,2.1,1,2.1,2.1c0,1.2-1,2.1-2.1,2.1h-2.6v11.9c0,1.4,1.1,2.6,2.5,2.6c0,0,0.1,0,0.1,0
	c1.2,0.1,2.1,1.1,2,2.3c-0.1,1.1-0.9,1.9-2,2c-3.8,0-6.9-3.1-6.9-6.9v-11.9h-1.7C423.2,192.3,422.2,191.4,422.2,190.2z"/>
<path class="st0" d="M452.5,194.6c0-1-0.6-1.9-1.6-2.3c-0.9-0.4-2-0.2-2.7,0.6c-0.4,0.4-0.9,0.6-1.5,0.6c-0.5,0-1.1-0.2-1.5-0.6
	c-0.4-0.4-0.7-0.9-0.7-1.5c0-0.6,0.2-1.1,0.7-1.5c2.7-2.6,6.9-2.6,9.6,0c1.3,1.3,2,3,2,4.7v14.1c0,1.2-0.9,2.1-2.1,2.1c0,0,0,0,0,0
	h-4.7c-3.8-0.1-6.7-3.3-6.6-7.1c0.1-3.6,3-6.5,6.6-6.6h2.6V194.6z M447.3,204c0,1.4,1.1,2.6,2.5,2.6c0,0,0,0,0.1,0h2.6v-5.2h-2.6
	C448.5,201.4,447.3,202.5,447.3,204C447.3,204,447.3,204,447.3,204z"/>
<path class="st0" d="M468.1,205.6v-25.1c0-1.2,1-2.1,2.1-2.1c1.2,0,2.1,0.9,2.1,2.1c0,0,0,0,0,0v25.1c0,0.6,0.3,1.1,0.9,1.4
	c1,0.6,1.4,1.9,0.8,2.9s-1.9,1.4-2.9,0.8l0,0C469.2,209.7,468.1,207.8,468.1,205.6z"/>
<path class="st0" d="M499.5,204.2v-9.5c0-2.8,1.6-5.3,4.2-6.3c2.6-1.1,5.5-0.5,7.5,1.5c0.8,0.7,0.9,2,0.2,2.8
	c-0.1,0.1-0.1,0.1-0.2,0.2c-0.7,0.8-2,0.9-2.8,0.2c-0.1-0.1-0.1-0.1-0.2-0.2c-0.7-0.7-1.9-1-2.8-0.6c-1,0.4-1.6,1.4-1.6,2.4v9.5
	c0,1.1,0.6,2,1.6,2.4c1,0.4,2.1,0.2,2.8-0.6c0.7-0.8,2-0.9,2.8-0.2c0.1,0.1,0.1,0.1,0.2,0.2c0.8,0.7,0.9,2,0.2,2.8
	c-0.1,0.1-0.1,0.1-0.2,0.2c-2.7,2.7-7,2.7-9.7,0C500.2,207.7,499.4,206,499.5,204.2L499.5,204.2z"/>
<path class="st0" d="M521.6,204.2v-9.5c0.1-3.8,3.3-6.7,7.1-6.6c3.6,0.1,6.5,3,6.6,6.6v9.5c-0.1,3.8-3.3,6.7-7.1,6.6
	C524.6,210.6,521.7,207.8,521.6,204.2z M525.9,194.7v9.5c-0.1,1.4,1,2.7,2.4,2.8s2.7-1,2.8-2.4c0-0.1,0-0.2,0-0.3v-9.5
	c-0.1-1.4-1.3-2.5-2.8-2.4C527,192.4,525.9,193.4,525.9,194.7z"/>
<path class="st0" d="M550.8,208.9c0,1.2-1,2.1-2.1,2.1c-1.2,0-2.1-0.9-2.1-2.1c0,0,0,0,0,0v-18.7c0-1.2,1-2.1,2.1-2.1l0,0h14.2
	c3.8,0,6.8,3.1,6.9,6.9v14c0,1.2-1,2.1-2.1,2.1c-1.2,0-2.1-0.9-2.1-2.1c0,0,0,0,0,0v-14c0-1.4-1.1-2.6-2.5-2.6c0,0,0,0-0.1,0h-2.6
	v16.6c0,1.2-1,2.1-2.1,2.1c-1.2,0-2.1-0.9-2.1-2.1c0,0,0,0,0,0v-16.6h-5.2V208.9z"/>
<path class="st0" d="M585.5,208.9c0,1.2-1,2.1-2.1,2.1c-1.2,0-2.1-0.9-2.1-2.1c0,0,0,0,0,0v-18.7c0-1.2,1-2.1,2.1-2.1l0,0h14.2
	c3.8,0,6.8,3.1,6.9,6.9v14c0,1.2-1,2.1-2.1,2.1c-1.2,0-2.1-0.9-2.1-2.1c0,0,0,0,0,0v-14c0-1.4-1.1-2.6-2.5-2.6c0,0,0,0-0.1,0h-2.6
	v16.6c0,1.2-1,2.1-2.1,2.1c-1.2,0-2.1-0.9-2.1-2.1c0,0,0,0,0,0v-16.6h-5.2V208.9z"/>
<path class="st0" d="M615.3,204.2v-9.5c0-3.8,3.1-6.9,6.9-6.8c3.8,0,6.8,3.1,6.8,6.8v4.7c0,1.2-0.9,2.1-2.1,2.1c0,0,0,0,0,0h-7.3
	v2.6c0,1.1,0.6,2,1.6,2.4c1,0.4,2.1,0.2,2.8-0.6c0.4-0.4,0.9-0.7,1.5-0.7c0.6,0,1.1,0.2,1.5,0.7c0.8,0.8,0.8,2.2,0,3
	c-2,2-4.9,2.5-7.5,1.5C617,209.4,615.3,206.9,615.3,204.2z M619.5,194.7v2.6h5.2v-2.6c-0.1-1.4-1.3-2.5-2.8-2.4
	C620.7,192.4,619.6,193.4,619.5,194.7z"/>
<path class="st0" d="M639.9,208.9v-18.7c0-1.2,1-2.1,2.1-2.1l0,0h4.7c1.2,0,2.4,0.3,3.4,0.9c1,0.6,1.4,1.8,0.8,2.9c0,0,0,0,0,0.1
	c-0.6,1-1.9,1.4-2.9,0.8c0,0,0,0,0,0c-0.4-0.2-0.8-0.3-1.3-0.3h-2.6v16.6c0,1.2-1,2.1-2.1,2.1S639.9,210.1,639.9,208.9L639.9,208.9z
	"/>
<path class="st0" d="M659.6,204.2v-9.5c0-2.8,1.6-5.3,4.2-6.3c2.6-1.1,5.6-0.5,7.5,1.5c0.8,0.7,0.9,2,0.2,2.8
	c-0.1,0.1-0.1,0.1-0.2,0.2c-0.4,0.4-0.9,0.7-1.5,0.7c-0.6,0-1.1-0.2-1.5-0.7c-0.7-0.7-1.9-1-2.8-0.6c-1,0.4-1.6,1.4-1.6,2.4v9.5
	c0,1.1,0.6,2,1.6,2.4c1,0.4,2.1,0.2,2.8-0.6c0.4-0.4,0.9-0.7,1.5-0.7c0.6,0,1.1,0.2,1.5,0.7c0.8,0.8,0.9,2.1,0.1,2.9
	c0,0,0,0-0.1,0.1c-2,2-4.9,2.5-7.5,1.5C661.3,209.5,659.6,207,659.6,204.2z"/>
<path class="st0" d="M681.8,204.2v-9.5c0-3.8,3.1-6.9,6.9-6.8c3.8,0,6.8,3.1,6.8,6.8v4.7c0,1.2-0.9,2.1-2.1,2.1c0,0,0,0,0,0H686v2.6
	c0,1.1,0.6,2,1.6,2.4c1,0.4,2.1,0.2,2.8-0.6c0.4-0.4,0.9-0.7,1.5-0.7c0.6,0,1.2,0.2,1.6,0.7c0.8,0.8,0.8,2.2,0,3
	c-2,2-4.9,2.5-7.5,1.5C683.4,209.5,681.7,207,681.8,204.2z M686,194.7v2.6h5.2v-2.6c0-1.4-1.2-2.6-2.6-2.6
	C687.2,192.1,686,193.3,686,194.7L686,194.7z"/>
</svg>
