<svg id="Layer_1" data-name="Layer 1" xmlns="http://www.w3.org/2000/svg" viewBox="0 0 695 222"><defs><style>.cls-1{fill:#61163a;}.cls-2{fill:#7c174b;}.cls-3{fill:#323232;}.cls-4{fill:#6e1842;}</style></defs><title>logo-UPNEXT</title><path class="cls-1" d="M79.1,139.69l19.16,19.1c9,10.05,23.53,3.49,24-8.79,0-.4,0-.8,0-1.21V58.59c0-5.55-1.32-9.53-4.07-12.37s-7.07-4.15-12.62-4.15H14A13.54,13.54,0,0,0,4.19,64.89L24.43,85.23c.15.17.32.31.46.48a13.59,13.59,0,0,0,10.63,5.15H73.46v36.69c0,7.24,2.92,9.44,5.64,12.14Z"/><path class="cls-2" d="M73.46,107.79l26.28,26.34c9.83,7.73,22.51,1.29,22.51-11V58.59c.14-11.14-5.61-16.38-16.69-16.52H40c-11.91,0-17.47,14.83-9.88,22.39l26.26,26.4h17Z"/><path class="cls-3" d="M149.25,128.53V53c0-6.38,5.38-11.49,12.11-11.49S173.47,46.57,173.47,53v75.58c0,7.92,6.47,14,14.81,14h14.81V53c0-6.38,5.38-11.49,12.11-11.49S227.32,46.57,227.32,53V154.06c0,6.39-5.39,11.49-12.12,11.49H188.28C166.74,165.55,149.25,149,149.25,128.53Z"/><path class="cls-3" d="M246.15,198.75V54.46c0-6.38,5.38-11.49,12.11-11.49h26.92c21.54,0,39,16.6,39,37v49c0,20.43-17.5,37-39,37h-14.8v32.7c0,6.38-5.39,11.49-12.12,11.49S246.15,205.13,246.15,198.75Zm39-132.8h-14.8v77.12h14.8c8.35,0,14.81-6.13,14.81-14V80C300,72.08,293.53,66,285.18,66Z"/><path class="cls-4" d="M343,155.58V54.46C343,48.08,348.37,43,355.1,43H382c21.53,0,39,16.6,39,37v75.58c0,6.38-5.65,11.49-12.11,11.49-6.73,0-12.12-5.11-12.12-11.49V80c0-7.92-6.46-14-14.8-14H367.21v89.63c0,6.38-5.65,11.49-12.11,11.49C348.37,167.07,343,162,343,155.58Z"/><path class="cls-4" d="M439.94,130V79c0-20.43,17.5-37,39-37s39,16.6,39,37v25.53c0,6.38-5.38,11.49-12.11,11.49H464.17v14c0,5.88,3.5,10.73,9.15,13A15.55,15.55,0,0,0,489.48,140a11.73,11.73,0,0,1,8.34-3.57,12.55,12.55,0,0,1,8.89,3.57,11.29,11.29,0,0,1,0,16.34,40.6,40.6,0,0,1-42.54,7.92C449.1,158.39,439.94,145.36,439.94,130ZM464.17,79V93h29.62V79c0-7.92-6.47-14-14.81-14S464.17,71.06,464.17,79Z"/><path class="cls-4" d="M530.16,150l26.92-46.47L531.24,59.06c-3.23-5.87-1.35-12.51,4.84-15.58a12.62,12.62,0,0,1,16.43,4.35l18.3,31.91,18.58-31.91c3.23-5.37,10.23-7.41,16.42-4.35s8.08,9.71,4.85,15.58l-25.85,44.43L611.73,150c3.23,5.87,1.35,12.77-4.84,15.58-6.2,3.06-13.19,1.53-16.43-4.34l-19.65-33.71L551.43,161.2c-3.23,5.87-10.77,7.4-16.42,4.34C528.82,162.73,526.93,155.83,530.16,150Z"/><path class="cls-4" d="M622.23,56.94c0-6.38,5.38-11.49,12.11-11.49h9.42V12.1c0-6.38,5.39-11.49,12.12-11.49S668,5.72,668,12.1V45.45H682.8c6.73,0,12.12,5.11,12.12,11.49s-5.39,11.49-12.12,11.49H668v64.09c0,7.92,6.47,14,14.81,14,6.73,0,12.12,5.1,12.12,11.49s-5.39,11.49-12.12,11.49c-21.54,0-39-16.6-39-37V68.43h-9.42C627.61,68.43,622.23,63.33,622.23,56.94Z"/><path class="cls-3" d="M341.77,204v-9.08a6.87,6.87,0,0,1,6.86-6.86h2.61v-7.52a2.13,2.13,0,1,1,4.25,0v28.2a2.12,2.12,0,0,1-2.12,2.13h-4.74A6.87,6.87,0,0,1,341.77,204Zm4.26-9.08V204a2.57,2.57,0,0,0,2.6,2.61h2.61V192.31h-2.61A2.56,2.56,0,0,0,346,194.91Z"/><path class="cls-3" d="M366.85,182.89a2.61,2.61,0,1,1,2.61,2.61A2.57,2.57,0,0,1,366.85,182.89ZM369.46,211a2.11,2.11,0,0,1-2.13-2.12V190a2.13,2.13,0,0,1,4.26,0v18.93A2.12,2.12,0,0,1,369.46,211Z"/><path class="cls-3" d="M382.85,204v-9.08a6.86,6.86,0,0,1,6.86-6.86h4.73a2.13,2.13,0,0,1,2.13,2.13v23.47a6.85,6.85,0,0,1-11.69,4.87,2.07,2.07,0,0,1,0-3,2,2,0,0,1,3,0,2.64,2.64,0,0,0,2.84.57,2.56,2.56,0,0,0,1.61-2.41v-2.79h-2.6A6.87,6.87,0,0,1,382.85,204Zm4.26-9.08V204a2.57,2.57,0,0,0,2.6,2.61h2.6V192.31h-2.6A2.56,2.56,0,0,0,387.11,194.91Z"/><path class="cls-3" d="M407.74,182.89a2.6,2.6,0,1,1,2.6,2.61A2.57,2.57,0,0,1,407.74,182.89Zm2.6,28.15a2.12,2.12,0,0,1-2.13-2.12V190a2.13,2.13,0,0,1,4.26,0v18.93A2.11,2.11,0,0,1,410.34,211Z"/><path class="cls-3" d="M422.22,190.18a2.13,2.13,0,0,1,2.13-2.13H426v-7.52a2.13,2.13,0,1,1,4.25,0v7.52h2.61a2.13,2.13,0,0,1,0,4.26h-2.61v11.87a2.57,2.57,0,0,0,2.61,2.61,2.13,2.13,0,0,1,0,4.25,6.86,6.86,0,0,1-6.86-6.86V192.31h-1.66A2.13,2.13,0,0,1,422.22,190.18Z"/><path class="cls-3" d="M452.5,194.63a2.51,2.51,0,0,0-1.56-2.32,2.46,2.46,0,0,0-2.74.57,2,2,0,0,1-1.52.61,2,2,0,0,1-1.46-.61,2.12,2.12,0,0,1-.66-1.52,2.08,2.08,0,0,1,.66-1.51,6.77,6.77,0,0,1,11.54,4.78v14.1a2.12,2.12,0,0,1-2.13,2.13H449.9a6.87,6.87,0,0,1,0-13.73h2.6ZM447.3,204a2.57,2.57,0,0,0,2.6,2.61h2.6v-5.21h-2.6A2.57,2.57,0,0,0,447.3,204Z"/><path class="cls-3" d="M468.07,205.65V180.53a2.15,2.15,0,0,1,2.13-2.13,2.11,2.11,0,0,1,2.13,2.13v25.12a1.57,1.57,0,0,0,.85,1.42,2.13,2.13,0,0,1-2.13,3.69A6,6,0,0,1,468.07,205.65Z"/><path class="cls-3" d="M499.45,204.18v-9.46a6.75,6.75,0,0,1,4.21-6.34,6.64,6.64,0,0,1,7.47,1.52,2,2,0,0,1,0,3,2,2,0,0,1-3,0,2.63,2.63,0,0,0-2.84-.57,2.56,2.56,0,0,0-1.6,2.41v9.46a2.58,2.58,0,0,0,1.6,2.42,2.63,2.63,0,0,0,2.84-.57,2,2,0,0,1,3,0,2,2,0,0,1,0,3,6.85,6.85,0,0,1-11.68-4.88Z"/><path class="cls-3" d="M521.59,204.18v-9.46a6.87,6.87,0,0,1,13.73,0v9.46a6.87,6.87,0,0,1-13.73,0Zm4.26-9.46v9.46a2.61,2.61,0,1,0,5.21,0v-9.46a2.61,2.61,0,0,0-5.21,0Z"/><path class="cls-3" d="M550.84,208.92a2.15,2.15,0,0,1-2.13,2.12,2.12,2.12,0,0,1-2.13-2.12V190.18a2.13,2.13,0,0,1,2.13-2.13H562.9a6.9,6.9,0,0,1,6.86,6.86v14a2.14,2.14,0,0,1-2.13,2.12,2.11,2.11,0,0,1-2.12-2.12v-14a2.57,2.57,0,0,0-2.61-2.6h-2.6v16.61a2.14,2.14,0,0,1-2.13,2.12,2.12,2.12,0,0,1-2.13-2.12V192.31h-5.2Z"/><path class="cls-3" d="M585.48,208.92a2.15,2.15,0,0,1-2.13,2.12,2.12,2.12,0,0,1-2.13-2.12V190.18a2.13,2.13,0,0,1,2.13-2.13h14.19a6.9,6.9,0,0,1,6.86,6.86v14a2.14,2.14,0,0,1-2.13,2.12,2.11,2.11,0,0,1-2.12-2.12v-14a2.57,2.57,0,0,0-2.61-2.6h-2.6v16.61a2.14,2.14,0,0,1-2.13,2.12,2.12,2.12,0,0,1-2.13-2.12V192.31h-5.2Z"/><path class="cls-3" d="M615.29,204.18v-9.46a6.86,6.86,0,0,1,13.72,0v4.73a2.11,2.11,0,0,1-2.13,2.13h-7.33v2.6a2.59,2.59,0,0,0,1.61,2.42A2.62,2.62,0,0,0,624,206a2,2,0,0,1,1.46-.66A2.15,2.15,0,0,1,627,206a2.19,2.19,0,0,1,0,3,6.86,6.86,0,0,1-7.48,1.46A6.71,6.71,0,0,1,615.29,204.18Zm4.26-9.46v2.6h5.21v-2.6a2.61,2.61,0,0,0-5.21,0Z"/><path class="cls-3" d="M639.9,208.92V190.18a2.13,2.13,0,0,1,2.13-2.13h4.73a6.78,6.78,0,0,1,3.41.9,2.11,2.11,0,0,1,.8,2.93,2.13,2.13,0,0,1-2.93.76,2.55,2.55,0,0,0-1.28-.33h-2.6v16.61a2.13,2.13,0,0,1-4.26,0Z"/><path class="cls-3" d="M659.63,204.18v-9.46a6.75,6.75,0,0,1,4.21-6.34,6.65,6.65,0,0,1,7.48,1.52,2,2,0,0,1,0,3,2.07,2.07,0,0,1-1.51.66,2,2,0,0,1-1.47-.66,2.64,2.64,0,0,0-2.84-.57,2.57,2.57,0,0,0-1.61,2.41v9.46a2.59,2.59,0,0,0,1.61,2.42,2.64,2.64,0,0,0,2.84-.57,2,2,0,0,1,1.47-.66,2,2,0,0,1,1.51.66,2.07,2.07,0,0,1,0,3,6.81,6.81,0,0,1-7.48,1.46A6.74,6.74,0,0,1,659.63,204.18Z"/><path class="cls-3" d="M681.78,204.18v-9.46a6.86,6.86,0,0,1,13.72,0v4.73a2.12,2.12,0,0,1-2.13,2.13H686v2.6a2.58,2.58,0,0,0,1.61,2.42,2.6,2.6,0,0,0,2.83-.57,2,2,0,0,1,1.47-.66,2.11,2.11,0,0,1,1.56.66,2.16,2.16,0,0,1,0,3,6.84,6.84,0,0,1-7.47,1.46A6.71,6.71,0,0,1,681.78,204.18Zm4.26-9.46v2.6h5.2v-2.6a2.6,2.6,0,0,0-5.2,0Z"/></svg>